<svg width="66" height="66" viewBox="0 0 66 66" fill="none" xmlns="http://www.w3.org/2000/svg">
<g clip-path="url(#clip0_1_12508)">
<path d="M55.0175 10.9824L42.7864 23.2135C40.2815 20.7086 36.8213 19.159 33 19.159V1.86255C41.5979 1.86255 49.3833 5.34682 55.0175 10.9824Z" fill="url(#paint0_linear_1_12508)"/>
<path d="M23.2142 23.2135C20.7094 25.7184 19.1598 29.1786 19.1598 32.9999H1.86328C1.86328 24.402 5.34756 16.6166 10.9832 10.9824L23.2142 23.2135Z" fill="url(#paint1_linear_1_12508)"/>
<path d="M32.9999 1.86255V19.159C29.1786 19.159 25.7184 20.7086 23.2135 23.2135L10.9824 10.9824C16.6166 5.34682 24.402 1.86255 32.9999 1.86255Z" fill="url(#paint2_linear_1_12508)"/>
<path d="M64.1381 32.9999H46.8416C46.8416 29.1786 45.292 25.7184 42.7871 23.2135L55.0182 10.9824C60.6538 16.6166 64.1381 24.402 64.1381 32.9999Z" fill="url(#paint3_linear_1_12508)"/>
<path d="M64.1381 33C64.1381 41.5978 60.6538 49.3833 55.0182 55.0174L42.7871 42.7864C45.292 40.2815 46.8416 36.8213 46.8416 33H64.1381Z" fill="url(#paint4_linear_1_12508)"/>
<path d="M23.2142 42.7864L10.9832 55.0174C5.34756 49.3833 1.86328 41.5978 1.86328 33H19.1598C19.1598 36.8213 20.7094 40.2815 23.2142 42.7864Z" fill="url(#paint5_linear_1_12508)"/>
<path d="M55.0175 55.0174C49.3833 60.6531 41.5979 64.1373 33 64.1373V46.8408C36.8213 46.8408 40.2815 45.2913 42.7864 42.7864L55.0175 55.0174Z" fill="url(#paint6_linear_1_12508)"/>
<path d="M32.9999 46.8408V64.1373C24.402 64.1373 16.6166 60.6531 10.9824 55.0174L23.2135 42.7864C25.7184 45.2913 29.1786 46.8408 32.9999 46.8408Z" fill="url(#paint7_linear_1_12508)"/>
<path d="M49.7022 16.2976L42.7864 23.2135C40.2815 20.7086 36.8213 19.159 33 19.159V9.38013C39.5233 9.38013 45.4266 12.0235 49.7022 16.2976Z" fill="url(#paint8_linear_1_12508)"/>
<path d="M23.2142 23.2135C20.7093 25.7184 19.1597 29.1786 19.1597 32.9999H9.38086C9.38086 26.4766 12.0241 20.5732 16.2983 16.2976L23.2142 23.2135Z" fill="url(#paint9_linear_1_12508)"/>
<path d="M32.9991 9.38013V19.159C29.1779 19.159 25.7177 20.7086 23.2128 23.2135L16.2969 16.2976C20.5725 12.0235 26.4759 9.38013 32.9991 9.38013Z" fill="url(#paint10_linear_1_12508)"/>
<path d="M56.6204 32.9999H46.8416C46.8416 29.1786 45.292 25.7184 42.7871 23.2135L49.703 16.2976C53.9771 20.5732 56.6204 26.4766 56.6204 32.9999Z" fill="url(#paint11_linear_1_12508)"/>
<path d="M56.6204 33C56.6204 39.5232 53.9771 45.4266 49.703 49.7022L42.7871 42.7864C45.292 40.2815 46.8416 36.8213 46.8416 33H56.6204Z" fill="url(#paint12_linear_1_12508)"/>
<path d="M23.2142 42.7864L16.2983 49.7022C12.0242 45.4266 9.38086 39.5232 9.38086 33H19.1597C19.1597 36.8213 20.7093 40.2815 23.2142 42.7864Z" fill="url(#paint13_linear_1_12508)"/>
<path d="M49.7022 49.7023C45.4266 53.9763 39.5233 56.6197 33 56.6197V46.8408C36.8213 46.8408 40.2815 45.2913 42.7864 42.7864L49.7022 49.7023Z" fill="url(#paint14_linear_1_12508)"/>
<path d="M32.9991 46.8408V56.6197C26.4759 56.6197 20.5725 53.9763 16.2969 49.7023L23.2128 42.7864C25.7177 45.2913 29.1779 46.8408 32.9991 46.8408Z" fill="url(#paint15_linear_1_12508)"/>
<path d="M58.6138 15.292L45.9087 27.9971C46.5107 29.5489 46.8416 31.2356 46.8416 32.9998C46.8416 36.821 45.292 40.2812 42.7871 42.7861C40.2822 45.291 36.822 46.8406 33.0008 46.8406C31.2366 46.8406 29.5497 46.5097 27.9981 45.9076L15.293 58.6128C20.3206 62.0953 26.4222 64.1371 33.0009 64.1371C41.5987 64.1371 49.3841 60.6528 55.0183 55.0172C60.654 49.3831 64.1382 41.5976 64.1382 32.9998C64.1381 26.4213 62.0964 20.3196 58.6138 15.292Z" fill="url(#paint16_linear_1_12508)"/>
<path d="M6.71831 45.8817L0.068371 64.4839C-0.253346 65.384 0.615782 66.2533 1.51584 65.9315L20.1181 59.2816C23.8295 55.5702 10.4296 42.1704 6.71831 45.8817Z" fill="url(#paint17_linear_1_12508)"/>
<path d="M42.5749 36.8272L20.1182 59.2817C19.7513 58.6459 19.1938 58.0834 18.4795 57.6848C17.5038 57.1444 15.9778 57.4402 14.9212 57.7606C14.6913 57.8291 14.481 57.7092 14.3954 57.5259C14.3668 57.4674 14.3515 57.4032 14.3507 57.3381C14.3498 57.273 14.3634 57.2085 14.3905 57.1493C14.393 57.1493 14.393 57.1468 14.393 57.1468C14.4512 57.0133 14.5026 56.877 14.5471 56.7384L14.6059 56.5403C14.6083 56.5353 14.6083 56.5329 14.6083 56.5281C14.6646 56.3153 14.7037 56.1026 14.7257 55.8849C14.7331 55.814 14.738 55.7406 14.7428 55.6697C14.7489 55.5516 14.75 55.4334 14.7462 55.3152C14.7196 54.4694 14.437 53.6515 13.9356 52.9698C13.8091 52.7969 13.6693 52.6342 13.5175 52.4831C13.3664 52.3312 13.2037 52.1913 13.0308 52.0648C12.2335 51.4779 11.2748 51.2089 10.3309 51.2578C10.26 51.2627 10.1866 51.2676 10.1157 51.2749C9.898 51.2969 9.68279 51.336 9.4725 51.3923C9.46758 51.3923 9.46512 51.3923 9.4602 51.3947L9.26208 51.4535C9.19116 51.4755 9.1227 51.4999 9.05424 51.5268C8.98824 51.5513 8.92211 51.5782 8.85611 51.6076C8.85365 51.6076 8.85365 51.6076 8.85119 51.6101C8.79198 51.6372 8.72748 51.6508 8.66235 51.65C8.59722 51.6491 8.53309 51.6338 8.47461 51.6051C8.29123 51.5196 8.17139 51.3092 8.23985 51.0793C8.56028 50.0228 8.85611 48.4993 8.31569 47.5235C7.91697 46.8069 7.35701 46.2493 6.71875 45.8826L29.1732 23.4258C30.1856 22.4157 31.8242 22.4157 32.8343 23.4258L34.7443 25.3357L40.665 31.2565L42.5749 33.1664C43.5849 34.1762 43.5849 35.8147 42.5749 36.8272Z" fill="url(#paint18_linear_1_12508)"/>
<path d="M40.665 31.256L14.3955 57.5256C14.3668 57.4671 14.3515 57.403 14.3507 57.3378C14.3498 57.2727 14.3634 57.2082 14.3905 57.149C14.393 57.149 14.393 57.1465 14.393 57.1465C14.4517 57.0121 14.706 56.0998 14.7256 55.8846C14.7354 55.8113 14.7402 55.7403 14.7427 55.6694C14.7916 54.7255 14.5225 53.7668 13.9357 52.9695C13.8091 52.7967 13.6693 52.6339 13.5175 52.4828C13.3664 52.3309 13.2037 52.1911 13.0308 52.0645C12.2335 51.4776 11.2748 51.2086 10.3309 51.2575C10.26 51.26 10.1891 51.2649 10.1157 51.2746C9.89822 51.2945 9.68298 51.3338 9.4725 51.392C9.46759 51.392 9.46513 51.392 9.46021 51.3944C9.39421 51.4115 8.92224 51.5778 8.85611 51.6072C8.85366 51.6072 8.85366 51.6072 8.8512 51.6096C8.79198 51.6368 8.72748 51.6504 8.66235 51.6496C8.59722 51.6487 8.53309 51.6334 8.47461 51.6047L34.7442 25.3352L40.665 31.256Z" fill="url(#paint19_linear_1_12508)"/>
<path d="M3.82325 62.1765C3.14138 61.4938 2.3577 60.921 1.50018 60.4785L0.068371 64.4839C-0.253346 65.384 0.615782 66.2532 1.51584 65.9314L5.52126 64.4996C5.07888 63.642 4.50606 62.8583 3.82325 62.1765Z" fill="url(#paint20_linear_1_12508)"/>
<path d="M63.9051 2.09475L36.7889 29.211L32.8223 25.2444C31.9577 24.3798 31.9577 22.9779 32.8223 22.1133L35.1946 19.7409C35.7017 19.2339 36.1039 18.632 36.3783 17.9695C36.6527 17.307 36.7939 16.597 36.7939 15.8799V12.9235C36.7939 10.5976 38.2673 8.52702 40.4648 7.76479L62.6388 0.073341C63.8664 -0.352553 64.8238 1.17593 63.9051 2.09475Z" fill="url(#paint21_linear_1_12508)"/>
<path d="M63.9053 2.09478L36.7891 29.211L40.7557 33.1776C41.6203 34.0422 43.0222 34.0422 43.8868 33.1776L46.2592 30.8052C46.7662 30.2982 47.3681 29.896 48.0306 29.6216C48.6931 29.3472 49.4031 29.206 50.1201 29.206H53.0764C55.4023 29.206 57.4729 27.7326 58.2352 25.5351L65.9266 3.36094C66.3525 2.13348 64.824 1.17596 63.9053 2.09478Z" fill="url(#paint22_linear_1_12508)"/>
<path d="M51.1289 16.1437L64.7492 2.52333C65.0883 2.18428 65.1285 1.63233 64.812 1.27205C64.7308 1.17928 64.6314 1.10416 64.52 1.05136C64.4086 0.998559 64.2875 0.969199 64.1643 0.965098C64.0411 0.960997 63.9184 0.982243 63.8037 1.02752C63.689 1.0728 63.5849 1.14114 63.4977 1.22831L49.8875 14.8387C48.9963 15.7298 47.7615 16.2177 46.5061 16.1068C45.3448 16.0043 44.1449 16.4439 43.3171 17.4261C42.144 18.8179 42.1626 20.894 43.358 22.2668C44.7932 23.9149 47.296 23.9795 48.8149 22.4606C49.6104 21.6651 49.9712 20.5999 49.8979 19.5596C49.8084 18.292 50.2304 17.0422 51.1289 16.1437Z" fill="url(#paint23_linear_1_12508)"/>
<path d="M36.5638 17.4463C36.3044 18.3127 35.834 19.1011 35.1946 19.7408L32.8223 22.1131C31.9577 22.9777 31.9577 24.3796 32.8223 25.2442L36.7889 29.2108L40.7555 33.1774C41.6201 34.042 43.022 34.042 43.8866 33.1774L46.259 30.8051C46.8985 30.1656 47.687 29.6952 48.5534 29.4359L36.5638 17.4463Z" fill="url(#paint24_linear_1_12508)"/>
<path d="M39.2533 40.1479L25.8516 26.746L31.1925 21.4051C31.8111 20.7865 32.8139 20.7865 33.4324 21.4051L44.5942 32.567C45.2128 33.1856 45.2128 34.1884 44.5942 34.8068L39.2533 40.1479Z" fill="url(#paint25_linear_1_12508)"/>
</g>
<defs>
<linearGradient id="paint0_linear_1_12508" x1="29.6296" y1="0.691633" x2="50.2151" y2="21.2772" gradientUnits="userSpaceOnUse">
<stop stop-color="#FFF5D9"/>
<stop offset="1" stop-color="#FFCE47"/>
</linearGradient>
<linearGradient id="paint1_linear_1_12508" x1="5.83169" y1="21.3995" x2="15.0459" y2="30.6138" gradientUnits="userSpaceOnUse">
<stop stop-color="#6FA953"/>
<stop offset="1" stop-color="#43765A"/>
</linearGradient>
<linearGradient id="paint2_linear_1_12508" x1="20.8581" y1="5.28937" x2="32.9671" y2="17.3985" gradientUnits="userSpaceOnUse">
<stop stop-color="#E4E08E"/>
<stop offset="1" stop-color="#6FA953"/>
</linearGradient>
<linearGradient id="paint3_linear_1_12508" x1="42.9437" y1="14.005" x2="62.5972" y2="33.6586" gradientUnits="userSpaceOnUse">
<stop stop-color="#FFCE47"/>
<stop offset="1" stop-color="#FF9356"/>
</linearGradient>
<linearGradient id="paint4_linear_1_12508" x1="47.3098" y1="31.7403" x2="58.7033" y2="43.134" gradientUnits="userSpaceOnUse">
<stop stop-color="#FF9356"/>
<stop offset="1" stop-color="#FF755C"/>
</linearGradient>
<linearGradient id="paint5_linear_1_12508" x1="4.18997" y1="33.1272" x2="17.5966" y2="46.5339" gradientUnits="userSpaceOnUse">
<stop stop-color="#7ACBFF"/>
<stop offset="1" stop-color="#45A2E0"/>
</linearGradient>
<linearGradient id="paint6_linear_1_12508" x1="32.9781" y1="48.5469" x2="44.2253" y2="59.7939" gradientUnits="userSpaceOnUse">
<stop stop-color="#FF755C"/>
<stop offset="1" stop-color="#FF4181"/>
</linearGradient>
<linearGradient id="paint7_linear_1_12508" x1="13.7794" y1="42.7173" x2="40.9759" y2="69.9139" gradientUnits="userSpaceOnUse">
<stop stop-color="#FF4181"/>
<stop offset="1" stop-color="#843561"/>
</linearGradient>
<linearGradient id="paint8_linear_1_12508" x1="45.433" y1="21.8101" x2="32.7634" y2="9.14059" gradientUnits="userSpaceOnUse">
<stop stop-color="#FFF5D9"/>
<stop offset="1" stop-color="#FFCE47"/>
</linearGradient>
<linearGradient id="paint9_linear_1_12508" x1="20.4009" y1="32.2101" x2="4.69811" y2="16.5072" gradientUnits="userSpaceOnUse">
<stop stop-color="#6FA953"/>
<stop offset="1" stop-color="#43765A"/>
</linearGradient>
<linearGradient id="paint10_linear_1_12508" x1="31.3819" y1="19.5727" x2="17.4072" y2="5.59807" gradientUnits="userSpaceOnUse">
<stop stop-color="#E4E08E"/>
<stop offset="1" stop-color="#6FA953"/>
</linearGradient>
<linearGradient id="paint11_linear_1_12508" x1="56.4715" y1="32.8479" x2="41.7188" y2="18.0953" gradientUnits="userSpaceOnUse">
<stop stop-color="#FFCE47"/>
<stop offset="1" stop-color="#FF9356"/>
</linearGradient>
<linearGradient id="paint12_linear_1_12508" x1="55.4544" y1="43.6438" x2="45.5985" y2="33.7879" gradientUnits="userSpaceOnUse">
<stop stop-color="#FF9356"/>
<stop offset="1" stop-color="#FF755C"/>
</linearGradient>
<linearGradient id="paint13_linear_1_12508" x1="24.2733" y1="47.8954" x2="6.07622" y2="29.6983" gradientUnits="userSpaceOnUse">
<stop stop-color="#7ACBFF"/>
<stop offset="1" stop-color="#45A2E0"/>
</linearGradient>
<linearGradient id="paint14_linear_1_12508" x1="44.1704" y1="55.9803" x2="30.907" y2="42.7169" gradientUnits="userSpaceOnUse">
<stop stop-color="#FF755C"/>
<stop offset="1" stop-color="#FF4181"/>
</linearGradient>
<linearGradient id="paint15_linear_1_12508" x1="33.2985" y1="56.922" x2="17.1117" y2="40.7352" gradientUnits="userSpaceOnUse">
<stop stop-color="#FF4181"/>
<stop offset="1" stop-color="#843561"/>
</linearGradient>
<linearGradient id="paint16_linear_1_12508" x1="46.3694" y1="46.3685" x2="36.9623" y2="36.9614" gradientUnits="userSpaceOnUse">
<stop stop-color="#843561" stop-opacity="0"/>
<stop offset="1" stop-color="#3A2F4D"/>
</linearGradient>
<linearGradient id="paint17_linear_1_12508" x1="1.55873" y1="51.0048" x2="14.9587" y2="64.4047" gradientUnits="userSpaceOnUse">
<stop stop-color="#FFE0EA"/>
<stop offset="1" stop-color="#FFC0D5"/>
</linearGradient>
<linearGradient id="paint18_linear_1_12508" x1="6.71875" y1="40.9749" x2="43.3324" y2="40.9749" gradientUnits="userSpaceOnUse">
<stop stop-color="#FFCE47"/>
<stop offset="1" stop-color="#FF9356"/>
</linearGradient>
<linearGradient id="paint19_linear_1_12508" x1="30.1297" y1="46.9904" x2="16.6025" y2="33.4632" gradientUnits="userSpaceOnUse">
<stop stop-color="#FFCE47"/>
<stop offset="1" stop-color="#FF9356"/>
</linearGradient>
<linearGradient id="paint20_linear_1_12508" x1="1.66484" y1="63.4894" x2="5.08394" y2="66.9085" gradientUnits="userSpaceOnUse">
<stop stop-color="#2F73A0"/>
<stop offset="1" stop-color="#174461"/>
</linearGradient>
<linearGradient id="paint21_linear_1_12508" x1="47.6081" y1="11.5713" x2="49.3726" y2="14.4702" gradientUnits="userSpaceOnUse">
<stop stop-color="#EDF5FF"/>
<stop offset="1" stop-color="#C7E9FF"/>
</linearGradient>
<linearGradient id="paint22_linear_1_12508" x1="52.0896" y1="17.1493" x2="54.4843" y2="21.4345" gradientUnits="userSpaceOnUse">
<stop stop-color="#EDF5FF"/>
<stop offset="1" stop-color="#C7E9FF"/>
</linearGradient>
<linearGradient id="paint23_linear_1_12508" x1="56.6134" y1="14.2831" x2="52.5012" y2="10.1709" gradientUnits="userSpaceOnUse">
<stop stop-color="#2F73A0"/>
<stop offset="1" stop-color="#174461"/>
</linearGradient>
<linearGradient id="paint24_linear_1_12508" x1="41.0335" y1="24.9445" x2="38.787" y2="27.191" gradientUnits="userSpaceOnUse">
<stop stop-color="#7ACBFF" stop-opacity="0"/>
<stop offset="1" stop-color="#2F73A0"/>
</linearGradient>
<linearGradient id="paint25_linear_1_12508" x1="36.8228" y1="28.2239" x2="33.3256" y2="33.8408" gradientUnits="userSpaceOnUse">
<stop stop-color="#2F73A0"/>
<stop offset="1" stop-color="#174461"/>
</linearGradient>
<clipPath id="clip0_1_12508">
<rect width="66" height="66" fill="white"/>
</clipPath>
</defs>
</svg>
