<svg width="73" height="65" viewBox="0 0 73 65" fill="none" xmlns="http://www.w3.org/2000/svg">
<g clip-path="url(#clip0_1_12425)">
<path d="M17.5516 15.4425C10.6694 15.4425 5.08984 21.0214 5.08984 27.9035V34.0672C5.08984 40.9494 10.6694 46.5289 17.5516 46.5289C28.4655 46.5289 39.1166 49.878 48.0666 56.124L51.5046 58.5233V3.44751L48.0666 5.84738C39.1165 12.0932 28.4655 15.4422 17.5516 15.4425Z" fill="url(#paint0_linear_1_12425)"/>
<path d="M19.622 42.3818H8.49805L10.2458 46.5005C11.4053 49.2333 12.003 52.1716 12.003 55.1403V59.0779C12.003 62.1494 14.493 64.6396 17.5646 64.6396C20.6367 64.6396 23.1269 62.1494 23.1269 59.0779V55.1403C23.1269 52.1718 22.5293 49.2333 21.3697 46.5005L19.622 42.3818Z" fill="url(#paint1_linear_1_12425)"/>
<path d="M18.8968 49.5715H15.2889C14.1583 49.5715 13.2422 50.4883 13.2422 51.619V51.6411C13.2422 52.2566 13.5145 52.8068 13.944 53.1822L22.468 61.7056C22.9021 60.8979 23.1287 59.9949 23.1274 59.0779V55.1404C23.1274 54.3713 23.0862 53.6044 23.0065 52.8424L20.438 50.2737C20.0626 49.8439 19.5123 49.5715 18.8968 49.5715Z" fill="url(#paint2_linear_1_12425)"/>
<path d="M18.8968 53.6884H15.2889C14.1583 53.6884 13.2422 52.7716 13.2422 51.641V51.6187C13.2422 50.4881 14.1584 49.5713 15.2889 49.5713H18.8968C20.0275 49.5713 20.9443 50.4881 20.9443 51.6187V51.641C20.9443 52.7716 20.0275 53.6884 18.8968 53.6884Z" fill="url(#paint3_linear_1_12425)"/>
<path d="M20.4385 56.8468C20.0631 56.4173 19.5129 56.145 18.8974 56.145H15.2895C14.1588 56.145 13.2422 57.0612 13.2422 58.1919V58.2147C13.2422 58.8295 13.5151 59.3798 13.9445 59.7551L18.7109 64.5215C21.0934 64.0225 22.9147 61.9991 23.109 59.5178L20.4385 56.8468Z" fill="url(#paint4_linear_1_12425)"/>
<path d="M18.8968 60.2614H15.2889C14.1583 60.2614 13.2422 59.3452 13.2422 58.2147V58.1919C13.2422 57.0612 14.1584 56.145 15.2889 56.145H18.8968C20.0275 56.145 20.9443 57.0612 20.9443 58.1919V58.2147C20.9443 59.3453 20.0275 60.2614 18.8968 60.2614Z" fill="url(#paint5_linear_1_12425)"/>
<path d="M23.1269 57.3676V55.1403C23.1269 52.1718 22.5293 49.2333 21.3697 46.5011L19.622 42.3818H8.49805L8.76153 43.0028L23.1269 57.3676Z" fill="url(#paint6_linear_1_12425)"/>
<path d="M11.6525 30.9857C11.6525 34.2033 9.04373 36.8119 5.82617 36.8119C2.60818 36.812 0 34.2034 0 30.9858C0 27.7684 2.60818 25.1597 5.82617 25.1597C9.04373 25.1597 11.6525 27.7683 11.6525 30.9857Z" fill="url(#paint7_linear_1_12425)"/>
<path d="M20.2127 34.9127V27.058C20.2127 22.0985 22.4867 17.6707 26.0484 14.7585C23.2389 15.2128 20.3976 15.4414 17.5516 15.4419C10.6694 15.4419 5.08984 21.0213 5.08984 27.9035V34.0672C5.08984 40.9494 10.6694 46.5289 17.5516 46.5289C20.3975 46.5295 23.2388 46.758 26.0483 47.2123C22.4867 44.3006 20.2125 39.8724 20.2125 34.9127H20.2127Z" fill="url(#paint8_linear_1_12425)"/>
<path d="M72.9996 31.0753C72.9996 13.9131 66.3302 0 58.1025 0C49.8752 0 43.2051 13.9131 43.2051 31.0753C43.2051 48.2376 49.875 62.1507 58.1023 62.1507C66.3301 62.1507 72.9995 48.2376 72.9995 31.0753H72.9996Z" fill="url(#paint9_linear_1_12425)"/>
<path d="M68.823 31.0754C68.823 17.325 64.4815 6.17822 59.1266 6.17822C53.7711 6.17822 49.4297 17.325 49.4297 31.0754C49.4297 44.8257 53.7711 55.9725 59.1266 55.9725C64.4817 55.9725 68.823 44.8256 68.823 31.0754Z" fill="url(#paint10_linear_1_12425)"/>
<path d="M68.112 40.4332C68.0963 40.5451 68.0779 40.6559 68.0591 40.7662C67.9945 41.1655 67.9248 41.5576 67.8502 41.9454C67.8213 42.1012 67.7923 42.2562 67.7599 42.4087C67.5535 43.4576 67.3069 44.4981 67.0208 45.5281C66.9802 45.6779 66.9378 45.8255 66.8955 45.9715C66.8922 45.9872 66.8872 46.0004 66.8834 46.0143C66.8408 46.1585 66.7973 46.3024 66.7529 46.446C66.7052 46.602 66.6578 46.7584 66.6065 46.9111C66.5676 47.0351 66.5285 47.156 66.4879 47.2764C66.4706 47.3293 66.4539 47.38 66.435 47.4329C66.3909 47.5621 66.3464 47.6896 66.3024 47.815C66.2483 47.9717 66.1917 48.1275 66.1326 48.2823C66.0835 48.4164 66.0323 48.5489 65.9816 48.6799C65.9543 48.7495 65.9271 48.8208 65.898 48.8904C65.8708 48.9601 65.8436 49.0279 65.8145 49.0975C65.7589 49.2351 65.7025 49.3694 65.6448 49.5041C65.6106 49.5838 65.5767 49.6618 65.541 49.742C65.5045 49.8274 65.4667 49.9122 65.4275 49.9965C65.3841 50.094 65.3393 50.191 65.2932 50.2873C65.0743 50.7542 64.8369 51.2122 64.5815 51.6601C63.0271 54.3813 61.1496 55.9719 59.1261 55.9719C54.5337 55.9719 50.6857 47.7708 49.6849 36.7612C49.6715 36.6119 49.6575 36.4621 49.6458 36.3113C49.6219 36.0378 49.6002 35.7609 49.5812 35.4819C49.578 35.4397 49.5763 35.3973 49.5728 35.3544C49.5551 35.0844 49.5391 34.8142 49.5249 34.544C49.5149 34.3692 49.5067 34.1943 49.4983 34.0193C49.4961 33.9824 49.4942 33.9455 49.4926 33.9085L49.4676 33.2769C49.4676 33.2581 49.4676 33.2391 49.4653 33.2224C49.4589 33.014 49.4534 32.8055 49.4486 32.597C49.4471 32.5596 49.4471 32.524 49.4454 32.4883V32.4726C49.4419 32.3252 49.4382 32.1775 49.437 32.0295C49.4348 31.9258 49.4331 31.8222 49.4331 31.717C49.4314 31.5025 49.4297 31.2887 49.4297 31.0748C49.4297 30.8603 49.4314 30.6465 49.4331 30.4326C49.4331 30.3307 49.4348 30.2287 49.437 30.1264L49.4469 29.6168C49.4469 29.5811 49.4486 29.5455 49.4486 29.5099L49.4586 29.1511C49.4621 28.9986 49.4672 28.847 49.4743 28.6962C49.4793 28.5262 49.486 28.3564 49.4943 28.186C49.496 28.1642 49.496 28.1404 49.4977 28.118C49.4994 28.059 49.5034 27.9994 49.5061 27.9415C49.54 27.2263 49.5879 26.5196 49.6475 25.8245C49.6642 25.6173 49.6832 25.4117 49.7016 25.2063C49.9439 25.175 50.188 25.1592 50.4323 25.1589C52.1398 25.1589 53.6737 25.8925 54.7391 27.0615L68.112 40.4332Z" fill="url(#paint11_linear_1_12425)"/>
<path d="M25.068 33.805H24.8371C23.8634 33.805 23.0742 33.0152 23.0742 32.0416V27.7016C23.0742 26.7277 23.8634 25.9387 24.8369 25.9387H25.068C26.0421 25.9387 26.8314 26.7279 26.8314 27.7014V32.0416C26.8314 33.0153 26.0421 33.805 25.068 33.805Z" fill="url(#paint12_linear_1_12425)"/>
<path d="M30.2908 33.805H30.0596C29.086 33.805 28.2969 33.0152 28.2969 32.0416V27.7016C28.2969 26.7277 29.086 25.9387 30.0596 25.9387H30.2907C31.2648 25.9387 32.054 26.7279 32.054 27.7014V32.0416C32.054 33.0153 31.2649 33.805 30.2908 33.805Z" fill="url(#paint13_linear_1_12425)"/>
<path d="M20.212 34.9128V27.9592H16.9784C16.1524 27.9592 15.4824 28.6293 15.4824 29.4553V30.288C15.4824 30.7251 15.6712 31.1166 15.9698 31.3901L20.2304 35.6508C20.2186 35.4049 20.2125 35.1589 20.2119 34.9128H20.212Z" fill="url(#paint14_linear_1_12425)"/>
<path d="M20.212 27.9592H16.9784C16.1524 27.9592 15.4824 28.6292 15.4824 29.4552V30.2878C15.4824 31.1143 16.1524 31.7837 16.9784 31.7837H20.212V27.9592Z" fill="url(#paint15_linear_1_12425)"/>
<path d="M50.4333 25.1594C50.1854 25.1594 49.9414 25.1768 49.7014 25.2069C49.5244 27.0889 49.4297 29.0537 49.4297 31.0754C49.4297 33.032 49.5181 34.9356 49.6842 36.7624C49.9297 36.7937 50.1792 36.8115 50.4333 36.8115C53.6507 36.8115 56.2595 34.2033 56.2595 30.9857C56.2595 27.7677 53.6507 25.1594 50.4333 25.1594Z" fill="url(#paint16_linear_1_12425)"/>
</g>
<defs>
<linearGradient id="paint0_linear_1_12425" x1="28.2973" y1="21.5579" x2="28.2973" y2="55.2993" gradientUnits="userSpaceOnUse">
<stop stop-color="#FFFCF8"/>
<stop offset="0.188" stop-color="#FAF8F6"/>
<stop offset="0.404" stop-color="#ECEEF2"/>
<stop offset="0.635" stop-color="#D5DCEA"/>
<stop offset="0.875" stop-color="#B5C4DF"/>
<stop offset="1" stop-color="#A1B5D8"/>
</linearGradient>
<linearGradient id="paint1_linear_1_12425" x1="12.2566" y1="51.7214" x2="25.7379" y2="55.7939" gradientUnits="userSpaceOnUse">
<stop stop-color="#FF4974"/>
<stop offset="0.228" stop-color="#FD4571"/>
<stop offset="0.466" stop-color="#F93867"/>
<stop offset="0.71" stop-color="#F12358"/>
<stop offset="0.955" stop-color="#E60642"/>
<stop offset="1" stop-color="#E4003D"/>
</linearGradient>
<linearGradient id="paint2_linear_1_12425" x1="20.3028" y1="56.3362" x2="15.306" y2="47.565" gradientUnits="userSpaceOnUse">
<stop stop-color="#E4003D" stop-opacity="0"/>
<stop offset="0.223" stop-color="#CD1845" stop-opacity="0.224"/>
<stop offset="0.503" stop-color="#B82E4D" stop-opacity="0.502"/>
<stop offset="0.768" stop-color="#AB3C51" stop-opacity="0.769"/>
<stop offset="1" stop-color="#A64153"/>
</linearGradient>
<linearGradient id="paint3_linear_1_12425" x1="15.8653" y1="51.259" x2="21.2066" y2="52.8724" gradientUnits="userSpaceOnUse">
<stop stop-color="#FFD00D"/>
<stop offset="0.238" stop-color="#FFCB0E"/>
<stop offset="0.535" stop-color="#FFBB11"/>
<stop offset="0.863" stop-color="#FFA215"/>
<stop offset="1" stop-color="#FF9517"/>
</linearGradient>
<linearGradient id="paint4_linear_1_12425" x1="19.4781" y1="62.0178" x2="15.9165" y2="53.9909" gradientUnits="userSpaceOnUse">
<stop stop-color="#E4003D" stop-opacity="0"/>
<stop offset="0.223" stop-color="#CD1845" stop-opacity="0.224"/>
<stop offset="0.503" stop-color="#B82E4D" stop-opacity="0.502"/>
<stop offset="0.768" stop-color="#AB3C51" stop-opacity="0.769"/>
<stop offset="1" stop-color="#A64153"/>
</linearGradient>
<linearGradient id="paint5_linear_1_12425" x1="15.8653" y1="57.8324" x2="21.2066" y2="59.4458" gradientUnits="userSpaceOnUse">
<stop stop-color="#FFD00D"/>
<stop offset="0.238" stop-color="#FFCB0E"/>
<stop offset="0.535" stop-color="#FFBB11"/>
<stop offset="0.863" stop-color="#FFA215"/>
<stop offset="1" stop-color="#FF9517"/>
</linearGradient>
<linearGradient id="paint6_linear_1_12425" x1="16.7218" y1="52.5516" x2="13.3222" y2="34.5161" gradientUnits="userSpaceOnUse">
<stop stop-color="#E4003D" stop-opacity="0"/>
<stop offset="0.223" stop-color="#CD1845" stop-opacity="0.224"/>
<stop offset="0.503" stop-color="#B82E4D" stop-opacity="0.502"/>
<stop offset="0.768" stop-color="#AB3C51" stop-opacity="0.769"/>
<stop offset="1" stop-color="#A64153"/>
</linearGradient>
<linearGradient id="paint7_linear_1_12425" x1="4.72447" y1="28.0114" x2="8.20665" y2="37.4131" gradientUnits="userSpaceOnUse">
<stop stop-color="#FFD00D"/>
<stop offset="0.238" stop-color="#FFCB0E"/>
<stop offset="0.535" stop-color="#FFBB11"/>
<stop offset="0.863" stop-color="#FFA215"/>
<stop offset="1" stop-color="#FF9517"/>
</linearGradient>
<linearGradient id="paint8_linear_1_12425" x1="15.5692" y1="25.4302" x2="15.5692" y2="45.3126" gradientUnits="userSpaceOnUse">
<stop stop-color="#FF4974"/>
<stop offset="0.228" stop-color="#FD4571"/>
<stop offset="0.466" stop-color="#F93867"/>
<stop offset="0.71" stop-color="#F12358"/>
<stop offset="0.955" stop-color="#E60642"/>
<stop offset="1" stop-color="#E4003D"/>
</linearGradient>
<linearGradient id="paint9_linear_1_12425" x1="47.4985" y1="22.0071" x2="96.6619" y2="64.0501" gradientUnits="userSpaceOnUse">
<stop stop-color="#FFD00D"/>
<stop offset="0.238" stop-color="#FFCB0E"/>
<stop offset="0.535" stop-color="#FFBB11"/>
<stop offset="0.863" stop-color="#FFA215"/>
<stop offset="1" stop-color="#FF9517"/>
</linearGradient>
<linearGradient id="paint10_linear_1_12425" x1="63.4674" y1="31.0752" x2="36.3836" y2="31.0752" gradientUnits="userSpaceOnUse">
<stop stop-color="#FFFCF8"/>
<stop offset="0.188" stop-color="#FAF8F6"/>
<stop offset="0.404" stop-color="#ECEEF2"/>
<stop offset="0.635" stop-color="#D5DCEA"/>
<stop offset="0.875" stop-color="#B5C4DF"/>
<stop offset="1" stop-color="#A1B5D8"/>
</linearGradient>
<linearGradient id="paint11_linear_1_12425" x1="59.1686" y1="43.527" x2="23.4184" y2="17.8383" gradientUnits="userSpaceOnUse">
<stop stop-color="#A1B5D8" stop-opacity="0"/>
<stop offset="0.67" stop-color="#8190A4" stop-opacity="0.671"/>
<stop offset="1" stop-color="#748290"/>
</linearGradient>
<linearGradient id="paint12_linear_1_12425" x1="25.7938" y1="29.8717" x2="20.5466" y2="29.8717" gradientUnits="userSpaceOnUse">
<stop stop-color="#FFFCF8"/>
<stop offset="0.188" stop-color="#FAF8F6"/>
<stop offset="0.404" stop-color="#ECEEF2"/>
<stop offset="0.635" stop-color="#D5DCEA"/>
<stop offset="0.875" stop-color="#B5C4DF"/>
<stop offset="1" stop-color="#A1B5D8"/>
</linearGradient>
<linearGradient id="paint13_linear_1_12425" x1="31.0164" y1="29.8717" x2="25.7691" y2="29.8717" gradientUnits="userSpaceOnUse">
<stop stop-color="#FFFCF8"/>
<stop offset="0.188" stop-color="#FAF8F6"/>
<stop offset="0.404" stop-color="#ECEEF2"/>
<stop offset="0.635" stop-color="#D5DCEA"/>
<stop offset="0.875" stop-color="#B5C4DF"/>
<stop offset="1" stop-color="#A1B5D8"/>
</linearGradient>
<linearGradient id="paint14_linear_1_12425" x1="21.0187" y1="33.7107" x2="17.3117" y2="28.6331" gradientUnits="userSpaceOnUse">
<stop stop-color="#E4003D" stop-opacity="0"/>
<stop offset="0.223" stop-color="#CD1845" stop-opacity="0.224"/>
<stop offset="0.503" stop-color="#B82E4D" stop-opacity="0.502"/>
<stop offset="0.768" stop-color="#AB3C51" stop-opacity="0.769"/>
<stop offset="1" stop-color="#A64153"/>
</linearGradient>
<linearGradient id="paint15_linear_1_12425" x1="17.8472" y1="29.111" x2="17.8472" y2="34.0814" gradientUnits="userSpaceOnUse">
<stop stop-color="#FFD00D"/>
<stop offset="0.238" stop-color="#FFCB0E"/>
<stop offset="0.535" stop-color="#FFBB11"/>
<stop offset="0.863" stop-color="#FFA215"/>
<stop offset="1" stop-color="#FF9517"/>
</linearGradient>
<linearGradient id="paint16_linear_1_12425" x1="50.8357" y1="27.5817" x2="54.2716" y2="36.8588" gradientUnits="userSpaceOnUse">
<stop stop-color="#FF4974"/>
<stop offset="0.228" stop-color="#FD4571"/>
<stop offset="0.466" stop-color="#F93867"/>
<stop offset="0.71" stop-color="#F12358"/>
<stop offset="0.955" stop-color="#E60642"/>
<stop offset="1" stop-color="#E4003D"/>
</linearGradient>
<clipPath id="clip0_1_12425">
<rect width="73" height="64.7305" fill="white"/>
</clipPath>
</defs>
</svg>
