<svg width="70" height="70" viewBox="0 0 70 70" fill="none" xmlns="http://www.w3.org/2000/svg">
<path d="M32.3013 19.7958C30.0556 22.1863 30.0556 25.9679 32.3013 28.3582C33.7666 29.9187 35.8278 30.5553 37.7805 30.2678C38.628 30.1429 39.384 30.8137 39.384 31.6702V36.2475C39.384 37.9803 37.9795 39.3849 36.2467 39.3849H31.6693C30.8129 39.3849 30.1421 38.629 30.267 37.7813C30.5543 35.8286 29.9178 33.7676 28.3574 32.3021C25.9671 30.0565 22.1853 30.0565 19.795 32.3021C18.2346 33.7674 17.5981 35.8285 17.8854 37.7813C18.0103 38.6289 17.3395 39.3849 16.483 39.3849H11.9053C10.1725 39.3849 8.76795 37.9803 8.76795 36.2475V31.6702C8.76795 30.8137 8.01099 30.1429 7.1633 30.2678C5.21167 30.5551 3.14955 29.9187 1.68422 28.3582C-0.561407 25.9678 -0.561407 22.1861 1.68422 19.7958C3.14955 18.2354 5.21181 17.5988 7.1633 17.8862C8.01099 18.0111 8.76795 17.3404 8.76795 16.4839V11.9064C8.76795 10.1736 10.1725 8.76906 11.9053 8.76906H16.4826C17.3391 8.76906 18.0099 8.0121 17.885 7.16441C17.5977 5.21279 18.2341 3.15067 19.7946 1.6852C22.1849 -0.56043 25.9667 -0.56043 28.357 1.6852C29.9174 3.15067 30.5539 5.21279 30.2666 7.16441C30.1417 8.01196 30.8125 8.76906 31.6689 8.76906H36.2462C37.9791 8.76906 39.3836 10.1736 39.3836 11.9064V16.4837C39.3836 17.3402 38.6278 18.011 37.7801 17.8861C35.8278 17.5989 33.7666 18.2354 32.3013 19.7958Z" fill="url(#paint0_linear_1_12472)"/>
<path d="M1.6837 28.3583C3.14903 29.9187 5.21115 30.5552 7.16292 30.2679C8.0106 30.143 8.76756 30.8137 8.76756 31.6702V36.2475C8.76756 37.9804 10.1721 39.3849 11.9049 39.3849H16.4823C17.3387 39.3849 18.0095 38.629 17.8846 37.7814C17.5973 35.8286 18.2338 33.7676 19.7942 32.3021C22.1845 30.0565 25.9663 30.0565 28.3566 32.3021C29.917 33.7675 30.5535 35.8285 30.2662 37.7814C30.1413 38.6289 30.8121 39.3849 31.6685 39.3849H36.2459C37.9787 39.3849 39.3832 37.9804 39.3832 36.2475V31.6702C39.3832 30.8137 38.6274 30.143 37.7797 30.2679C35.827 30.5552 33.7659 29.9187 32.3005 28.3583C31.6265 27.6407 31.1337 26.7726 30.8629 25.8262H0.246094C0.516984 26.7726 1.00984 27.6406 1.6837 28.3583Z" fill="url(#paint1_linear_1_12472)"/>
<path d="M32.3013 50.4097C30.0556 52.8002 30.0556 56.5818 32.3013 58.9721C33.7666 60.5325 35.8278 61.1691 37.7805 60.8817C38.628 60.7568 39.384 61.4276 39.384 62.2841V66.8614C39.384 68.5942 37.9795 69.9987 36.2467 69.9987H31.6693C30.8129 69.9987 30.1421 69.2429 30.267 68.3952C30.5543 66.4425 29.9178 64.3814 28.3574 62.916C25.9671 60.6704 22.1853 60.6704 19.795 62.916C18.2346 64.3813 17.5981 66.4423 17.8854 68.3952C18.0103 69.2427 17.3395 69.9987 16.483 69.9987H11.9053C10.1725 69.9987 8.76795 68.5942 8.76795 66.8614V62.2841C8.76795 61.4276 8.01099 60.7568 7.1633 60.8817C5.21167 61.169 3.14955 60.5325 1.68422 58.9721C-0.561407 56.5817 -0.561407 52.8 1.68422 50.4097C3.14955 48.8493 5.21181 48.2127 7.1633 48.5001C8.01099 48.625 8.76795 47.9542 8.76795 47.0978V42.5204C8.76795 40.7876 10.1725 39.3831 11.9053 39.3831H16.4826C17.3391 39.3831 18.0099 38.6261 17.885 37.7784C17.5977 35.8268 18.2341 33.7647 19.7946 32.2992C22.1849 30.0536 25.9667 30.0536 28.357 32.2992C29.9174 33.7647 30.5539 35.8268 30.2666 37.7784C30.1417 38.626 30.8125 39.3831 31.6689 39.3831H36.2462C37.9791 39.3831 39.3836 40.7876 39.3836 42.5204V47.0978C39.3836 47.9542 38.6278 48.625 37.7801 48.5001C35.8278 48.2127 33.7666 48.8493 32.3013 50.4097Z" fill="url(#paint2_linear_1_12472)"/>
<path d="M62.918 50.4097C60.6724 52.8002 60.6724 56.5818 62.918 58.9721C64.3834 60.5325 66.4445 61.1691 68.3973 60.8817C69.2448 60.7568 70.0008 61.4276 70.0008 62.2841V66.8614C70.0008 68.5942 68.5963 69.9987 66.8634 69.9987H62.2861C61.4296 69.9987 60.7589 69.2429 60.8838 68.3952C61.1711 66.4425 60.5346 64.3814 58.9742 62.916C56.5839 60.6704 52.8021 60.6704 50.4118 62.916C48.8513 64.3813 48.2149 66.4423 48.5022 68.3952C48.6271 69.2427 47.9563 69.9987 47.0998 69.9987H42.5225C40.7897 69.9987 39.3851 68.5942 39.3851 66.8614V62.2841C39.3851 61.4276 38.6282 60.7568 37.7805 60.8817C35.8289 61.169 33.7667 60.5325 32.3014 58.9721C30.0558 56.5817 30.0558 52.8 32.3014 50.4097C33.7667 48.8493 35.829 48.2127 37.7805 48.5001C38.6282 48.625 39.3851 47.9542 39.3851 47.0978V42.5204C39.3851 40.7876 40.7897 39.3831 42.5225 39.3831H47.0998C47.9563 39.3831 48.6271 38.6261 48.5022 37.7784C48.2149 35.8268 48.8513 33.7647 50.4118 32.2992C52.8021 30.0536 56.5839 30.0536 58.9742 32.2992C60.5346 33.7647 61.1711 35.8268 60.8838 37.7784C60.7589 38.626 61.4296 39.3831 62.2861 39.3831H66.8634C68.5963 39.3831 70.0008 40.7876 70.0008 42.5204V47.0978C70.0008 47.9542 69.2449 48.625 68.3973 48.5001C66.4444 48.2127 64.3834 48.8493 62.918 50.4097Z" fill="url(#paint3_linear_1_12472)"/>
<path d="M37.7813 48.4999C38.6288 48.6248 39.3848 47.9541 39.3848 47.0976V42.5203C39.3848 40.7874 37.9803 39.3829 36.2474 39.3829H31.6701C30.8136 39.3829 30.1429 38.6259 30.2678 37.7783C30.5551 35.8266 29.9186 33.7645 28.3582 32.299C27.1704 31.1833 25.6391 30.6225 24.1056 30.6155C23.6098 31.9566 23.3398 33.4373 23.3398 35.0233C23.3398 38.6821 24.3303 41.9658 26.8659 44.2188L32.6853 50.0383C34.1145 48.7512 35.9925 48.2368 37.7813 48.4999Z" fill="url(#paint4_linear_1_12472)"/>
<path d="M62.2847 69.9989H66.862C68.5948 69.9989 69.9994 68.5943 69.9994 66.8616V62.2843C69.9994 61.4278 69.2435 60.757 68.3958 60.8819C66.4431 61.1692 64.3821 60.5327 62.9166 58.9723C60.671 56.582 60.671 52.8002 62.9166 50.4099C63.7429 49.5272 64.8084 48.9041 65.9829 48.6167L50.0436 32.677C48.7531 34.1072 48.2372 35.9886 48.5007 37.7784C48.6256 38.6259 47.9548 39.383 47.0984 39.383H42.5211C40.7882 39.383 39.3837 40.7875 39.3837 42.5204V47.0977C39.3837 47.9542 38.6267 48.6249 37.779 48.5C35.9917 48.2369 34.113 48.7511 32.6836 50.0378L48.6193 65.9737C48.9076 64.8025 49.5298 63.7404 50.4103 62.9162C52.8006 60.6706 56.5824 60.6706 58.9727 62.9162C60.5332 64.3815 61.1698 66.4427 60.8823 68.3954C60.7574 69.2431 61.4282 69.9989 62.2847 69.9989Z" fill="url(#paint5_linear_1_12472)"/>
<path d="M34.999 47.2998C41.792 47.2998 47.2989 41.793 47.2989 35C47.2989 28.207 41.792 22.7002 34.999 22.7002C28.206 22.7002 22.6992 28.207 22.6992 35C22.6992 41.793 28.206 47.2998 34.999 47.2998Z" fill="url(#paint6_linear_1_12472)"/>
<path d="M32.9934 40.843C31.9263 40.843 30.9229 40.4274 30.1684 39.6729L26.7711 36.2756C26.0607 35.5653 26.0607 34.4135 26.7711 33.703C27.4814 32.9926 28.6332 32.9926 29.3437 33.703L32.741 37.1004C32.8275 37.1868 32.926 37.205 32.9934 37.205C33.0608 37.205 33.1594 37.1868 33.2458 37.1004L40.6568 29.6896C41.3672 28.9791 42.5189 28.9791 43.2293 29.6896C43.9396 30.3999 43.9396 31.5517 43.2293 32.2621L35.8185 39.6729C35.0638 40.4274 34.0606 40.843 32.9934 40.843Z" fill="white"/>
<path d="M1.6837 58.972C3.14903 60.5325 5.21115 61.1689 7.16292 60.8816C8.0106 60.7567 8.76756 61.4275 8.76756 62.284V66.8613C8.76756 68.5941 10.1721 69.9987 11.9049 69.9987H16.4823C17.3387 69.9987 18.0095 69.2428 17.8846 68.3951C17.5973 66.4424 18.2338 64.3814 19.7942 62.9159C22.1845 60.6703 25.9663 60.6703 28.3566 62.9159C29.917 64.3812 30.5535 66.4423 30.2662 68.3951C30.1413 69.2427 30.8121 69.9987 31.6685 69.9987H36.2459C37.9787 69.9987 39.3832 68.5941 39.3832 66.8613V62.284C39.3832 61.4275 38.6274 60.7567 37.7797 60.8816C35.827 61.1689 33.7659 60.5325 32.3005 58.972C31.6265 58.2545 31.1337 57.3864 30.8629 56.4399H0.246094C0.517014 57.3863 1.00987 58.2544 1.6837 58.972Z" fill="url(#paint7_linear_1_12472)"/>
<path d="M32.0528 58.972C33.5182 60.5325 35.5803 61.1689 37.5321 60.8816C38.3797 60.7567 39.1367 61.4275 39.1367 62.284V66.8613C39.1367 68.5941 40.5412 69.9987 42.2741 69.9987H46.8514C47.7079 69.9987 48.3786 69.2428 48.2537 68.3951C47.9664 66.4424 48.6029 64.3814 50.1634 62.9159C52.5536 60.6703 56.3354 60.6703 58.7257 62.9159C60.2862 64.3812 60.9226 66.4423 60.6354 68.3951C60.5105 69.2427 61.1812 69.9987 62.0377 69.9987H66.615C68.3478 69.9987 69.7524 68.5941 69.7524 66.8613V62.284C69.7524 61.4275 68.9965 60.7567 68.1488 60.8816C66.1961 61.1689 64.1351 60.5325 62.6696 58.972C61.9957 58.2545 61.5028 57.3864 61.232 56.4399H30.6152C30.886 57.3864 31.3789 58.2545 32.0528 58.972Z" fill="url(#paint8_linear_1_12472)"/>
<path d="M54.6044 15.3959C53.5824 14.3739 53.5824 12.7168 54.6044 11.6947L59.6215 6.67763C60.6435 5.65563 62.3005 5.65563 63.3227 6.67763C64.3447 7.69963 64.3447 9.35671 63.3227 10.3788L58.3056 15.3959C57.2835 16.4179 55.6264 16.4179 54.6044 15.3959Z" fill="url(#paint9_linear_1_12472)"/>
<path d="M44.1191 14.3006C42.6737 14.3006 41.502 13.1288 41.502 11.6834V4.58812C41.502 3.14269 42.6737 1.97095 44.1191 1.97095C45.5646 1.97095 46.7363 3.14269 46.7363 4.58812V11.6832C46.7363 13.1288 45.5646 14.3006 44.1191 14.3006Z" fill="url(#paint10_linear_1_12472)"/>
<path d="M55.6992 25.8813C55.6992 24.4359 56.871 23.2642 58.3164 23.2642H65.4115C66.8569 23.2642 68.0287 24.4359 68.0287 25.8813C68.0287 27.3268 66.8569 28.4985 65.4115 28.4985H58.3164C56.871 28.4985 55.6992 27.3268 55.6992 25.8813Z" fill="url(#paint11_linear_1_12472)"/>
<defs>
<linearGradient id="paint0_linear_1_12472" x1="0" y1="0.000976562" x2="39.384" y2="0.000976562" gradientUnits="userSpaceOnUse">
<stop stop-color="#7ACBFF"/>
<stop offset="1" stop-color="#45A2E0"/>
</linearGradient>
<linearGradient id="paint1_linear_1_12472" x1="19.8148" y1="28.9609" x2="19.8148" y2="39.6976" gradientUnits="userSpaceOnUse">
<stop stop-color="#2F73A0" stop-opacity="0"/>
<stop offset="1" stop-color="#2F73A0"/>
</linearGradient>
<linearGradient id="paint2_linear_1_12472" x1="0" y1="30.615" x2="39.384" y2="30.615" gradientUnits="userSpaceOnUse">
<stop stop-color="#FFCE47"/>
<stop offset="1" stop-color="#FF9356"/>
</linearGradient>
<linearGradient id="paint3_linear_1_12472" x1="37.5601" y1="37.5583" x2="58.0717" y2="58.0699" gradientUnits="userSpaceOnUse">
<stop stop-color="#FF755C"/>
<stop offset="1" stop-color="#FF4181"/>
</linearGradient>
<linearGradient id="paint4_linear_1_12472" x1="23.3398" y1="30.6155" x2="39.3848" y2="30.6155" gradientUnits="userSpaceOnUse">
<stop stop-color="#FF9356" stop-opacity="0"/>
<stop offset="1" stop-color="#FF755C"/>
</linearGradient>
<linearGradient id="paint5_linear_1_12472" x1="32.6836" y1="32.677" x2="69.9994" y2="32.677" gradientUnits="userSpaceOnUse">
<stop stop-color="#843561" stop-opacity="0"/>
<stop offset="1" stop-color="#3A2F4D"/>
</linearGradient>
<linearGradient id="paint6_linear_1_12472" x1="29.7257" y1="29.7267" x2="41.4228" y2="41.4238" gradientUnits="userSpaceOnUse">
<stop stop-color="#E4E08E"/>
<stop offset="1" stop-color="#6FA953"/>
</linearGradient>
<linearGradient id="paint7_linear_1_12472" x1="0.246094" y1="56.4399" x2="39.3832" y2="56.4399" gradientUnits="userSpaceOnUse">
<stop stop-color="#FF9356" stop-opacity="0"/>
<stop offset="1" stop-color="#FF755C"/>
</linearGradient>
<linearGradient id="paint8_linear_1_12472" x1="30.6152" y1="56.4399" x2="69.7524" y2="56.4399" gradientUnits="userSpaceOnUse">
<stop stop-color="#843561" stop-opacity="0"/>
<stop offset="1" stop-color="#3A2F4D"/>
</linearGradient>
<linearGradient id="paint9_linear_1_12472" x1="59.2763" y1="11.4239" x2="57.4556" y2="9.60318" gradientUnits="userSpaceOnUse">
<stop stop-color="#6FA953"/>
<stop offset="1" stop-color="#43765A"/>
</linearGradient>
<linearGradient id="paint10_linear_1_12472" x1="41.502" y1="1.97095" x2="46.7363" y2="1.97095" gradientUnits="userSpaceOnUse">
<stop stop-color="#FFCE47"/>
<stop offset="1" stop-color="#FF9356"/>
</linearGradient>
<linearGradient id="paint11_linear_1_12472" x1="55.6992" y1="23.2642" x2="68.0287" y2="23.2642" gradientUnits="userSpaceOnUse">
<stop stop-color="#7ACBFF"/>
<stop offset="1" stop-color="#45A2E0"/>
</linearGradient>
</defs>
</svg>
