<svg width="68" height="75" viewBox="0 0 68 75" fill="none" xmlns="http://www.w3.org/2000/svg">
<path d="M29.4643 75.0001C45.737 75.0001 58.9286 61.8085 58.9286 45.5358C58.9286 29.2631 45.737 16.0715 29.4643 16.0715C13.1916 16.0715 0 29.2631 0 45.5358C0 61.8085 13.1916 75.0001 29.4643 75.0001Z" fill="#8BC34A"/>
<path d="M29.4643 74.9999C33.3336 74.9999 37.165 74.2378 40.7398 72.7571C44.3145 71.2764 47.5627 69.1061 50.2987 66.37C53.0347 63.634 55.205 60.3859 56.6857 56.8111C58.1664 53.2364 58.9286 49.4049 58.9286 45.5356H0C0 53.3501 3.10426 60.8444 8.62989 66.37C14.1555 71.8957 21.6499 74.9999 29.4643 74.9999Z" fill="#FFEB3B"/>
<path d="M29.4648 8.47878e-06V45.5357L61.6479 13.3527C57.4273 9.11706 52.4115 5.75701 46.8885 3.46555C41.3656 1.17408 35.4443 -0.003646 29.4648 8.47878e-06Z" fill="#E91E63"/>
<path d="M55.9693 72.0402C59.4549 68.5624 62.2203 64.4312 64.1071 59.8831C65.994 55.3351 66.9652 50.4596 66.9652 45.5357C66.9652 40.6118 65.994 35.7363 64.1071 31.1883C62.2203 26.6402 59.4549 22.5091 55.9693 19.0312L29.4648 45.5357L55.9693 72.0402Z" fill="#03A9F4"/>
</svg>
