<svg width="66" height="75" viewBox="0 0 66 75" fill="none" xmlns="http://www.w3.org/2000/svg">
<path d="M64.9949 56.25V18.75L32.519 0L0.0429688 18.75V56.25L32.519 75L64.9949 56.25Z" fill="#CCEFFF"/>
<path d="M32.5195 0V75L64.9954 56.25V18.75L32.5195 0Z" fill="#ACE3FC"/>
<path d="M54.7622 39.5522L32.5187 52.3944L12.8125 41.0171L10.6152 44.8228L28.1242 54.9316L12.9417 63.6973L17.3362 66.2344L32.5187 57.4689L47.7013 66.2344L52.0958 63.6973L36.9133 54.9316L56.9595 43.3579L54.7622 39.5522Z" fill="#ACE3FC"/>
<path d="M56.9603 43.3579L54.763 39.5522L32.5195 52.3944V57.4689L47.702 66.2344L52.0966 63.6973L36.9141 54.9316L56.9603 43.3579Z" fill="#86D6F2"/>
<path d="M32.519 0L0.0429688 18.75V56.25L32.519 37.5L64.9949 56.25V18.75L32.519 0Z" fill="#7D8AFF"/>
<path d="M64.9954 56.25V18.75L32.5195 0V37.5L64.9954 56.25Z" fill="#6E76E5"/>
<path d="M20.002 24.7563L22.1991 28.562L14.5877 32.9565L12.3905 29.1508L20.002 24.7563Z" fill="#063E8B"/>
<path d="M8.58594 31.3486L10.7831 35.1543L3.42543 39.4023L1.22823 35.5966L8.58594 31.3486Z" fill="#063E8B"/>
<path d="M32.5188 17.5293L23.8086 22.56L26.0059 26.3657L32.5188 22.6054L39.0318 26.3657L41.2291 22.56L32.5188 17.5293Z" fill="#063E8B"/>
<path d="M63.8105 35.5974L61.6134 39.4031L54.2557 35.1551L56.4528 31.3494L63.8105 35.5974Z" fill="#032E68"/>
<path d="M45.0371 24.7573L52.6485 29.1518L50.4513 32.9574L42.8399 28.563L45.0371 24.7573Z" fill="#032E68"/>
<path d="M32.5195 17.5293V22.6054L39.0325 26.3657L41.2298 22.56L32.5195 17.5293Z" fill="#032E68"/>
</svg>
