<svg width="81" height="70" viewBox="0 0 81 70" fill="none" xmlns="http://www.w3.org/2000/svg">
<g clip-path="url(#clip0_1_11987)">
<path d="M74.0409 60C73.2879 60 72.786 59.5 72.786 58.75V16.25C72.786 14.25 71.0291 12.5 69.0212 12.5H58.9817C58.2287 12.5 57.7268 12 57.7268 11.25C57.7268 10.5 58.2287 10 58.9817 10H69.0212C72.535 10 75.2958 12.75 75.2958 16.25V58.75C75.2958 59.5 74.7939 60 74.0409 60ZM6.27447 60C5.5215 60 5.01953 59.5 5.01953 58.75V16.25C5.01953 12.75 7.78039 10 11.2942 10H21.3337C22.0866 10 22.5886 10.5 22.5886 11.25C22.5886 12 22.0866 12.5 21.3337 12.5H11.2942C9.28631 12.5 7.5294 14.25 7.5294 16.25V58.75C7.5294 59.5 7.02743 60 6.27447 60Z" fill="#FBFBFB"/>
<path d="M56.4712 0H23.8429C21.835 0 20.0781 1.75 20.0781 3.75V23.75C20.0781 25.75 21.835 27.5 23.8429 27.5H56.4712C58.4791 27.5 60.236 25.75 60.236 23.75V3.75C60.236 1.75 58.4791 0 56.4712 0ZM56.2202 2.5L45.4278 15C42.6669 18.25 37.6472 18.25 34.8863 15L24.0939 2.5H56.2202ZM56.4712 25H23.8429C23.09 25 22.588 24.5 22.588 23.75V4.75L32.8785 16.75C34.8863 18.75 37.3962 20 40.1571 20C42.9179 20 45.4278 18.75 47.4357 16.75L57.7261 4.75V23.75C57.7261 24.5 57.2242 25 56.4712 25Z" fill="#FBFBFB"/>
<path d="M22.5881 26.5C22.3371 26.5 21.8352 26.25 21.5842 26C21.0822 25.5 21.3332 24.75 21.8352 24.25L33.1296 15.25C33.6315 14.75 34.3845 15 34.8865 15.5C35.3884 16 35.1375 16.75 34.6355 17.25L23.3411 26.25C23.0901 26.5 22.8391 26.5 22.5881 26.5ZM57.7263 26.5C57.4753 26.5 57.2243 26.5 56.9733 26.25L45.6789 17.25C45.1769 16.75 45.1769 16 45.4279 15.5C45.9299 15 46.6828 15 47.1848 15.25L58.4792 24.25C58.9812 24.75 58.9812 25.5 58.7302 26C58.4792 26.25 57.9772 26.5 57.7263 26.5Z" fill="#FBFBFB"/>
<path d="M25.0979 50C27.8702 50 30.1176 47.7614 30.1176 45C30.1176 42.2386 27.8702 40 25.0979 40C22.3255 40 20.0781 42.2386 20.0781 45C20.0781 47.7614 22.3255 50 25.0979 50Z" fill="#FBFBFB"/>
<path d="M48.9423 45H36.393C35.64 45 35.138 44.5 35.138 43.75C35.138 43 35.64 42.5 36.393 42.5H48.9423C49.6953 42.5 50.1972 43 50.1972 43.75C50.1972 44.5 49.6953 45 48.9423 45ZM58.9818 52.5H36.393C35.64 52.5 35.138 52 35.138 51.25C35.138 50.5 35.64 50 36.393 50H58.9818C59.7347 50 60.2367 50.5 60.2367 51.25C60.2367 52 59.7347 52.5 58.9818 52.5ZM48.4403 62.5L53.4601 57.5H26.8555L31.8752 62.5H48.4403Z" fill="#FBFBFB"/>
<path d="M15.0587 36.25C15.0587 35.5 15.5607 35 16.3136 35H64.0011C64.7541 35 65.2561 35.5 65.2561 36.25V55H67.7659V36.25C67.7659 34.25 66.009 32.5 64.0011 32.5H16.3136C14.3057 32.5 12.5488 34.25 12.5488 36.25V55H15.0587V36.25Z" fill="#FBFBFB"/>
<path d="M27.3576 52.5H22.8398C21.3339 52.5 20.0789 53.25 19.577 54.5L19.326 55H30.8714L30.6204 54.5C30.1184 53.25 28.8635 52.5 27.3576 52.5ZM76.551 57.5H56.974L49.6954 64.75C49.4444 65 49.1934 65 48.6914 65H31.1224C30.8714 65 30.3694 64.75 30.1184 64.75L23.3418 57.5H3.7648C1.75691 57.5 0 59.25 0 61.25C0 66 4.01579 70 8.78454 70H71.5312C76.3 70 80.3158 66 80.3158 61.25C80.3158 59.25 78.5589 57.5 76.551 57.5Z" fill="#FBFBFB"/>
</g>
<defs>
<clipPath id="clip0_1_11987">
<rect width="80.3158" height="70" fill="white"/>
</clipPath>
</defs>
</svg>
