<svg width="20" height="18" viewBox="0 0 20 18" fill="none" xmlns="http://www.w3.org/2000/svg">
<path fill-rule="evenodd" clip-rule="evenodd" d="M7 8C9.206 8 11 6.206 11 4C11 1.794 9.206 0 7 0C4.794 0 3 1.794 3 4C3 6.206 4.794 8 7 8ZM15 10C16.654 10 18 8.654 18 7C18 5.346 16.654 4 15 4C13.346 4 12 5.346 12 7C12 8.654 13.346 10 15 10ZM20 16C20 16.552 19.553 17 19 17H14C14 17.552 13.553 18 13 18H1C0.447 18 0 17.552 0 17C0 13.14 3.141 10 7 10C8.927 10 10.673 10.783 11.94 12.046C12.809 11.374 13.879 11 15 11C17.757 11 20 13.243 20 16Z" fill="#8A47CB"/>
<mask id="mask0_1_12325" style="mask-type:luminance" maskUnits="userSpaceOnUse" x="0" y="0" width="20" height="18">
<path fill-rule="evenodd" clip-rule="evenodd" d="M7 8C9.206 8 11 6.206 11 4C11 1.794 9.206 0 7 0C4.794 0 3 1.794 3 4C3 6.206 4.794 8 7 8ZM15 10C16.654 10 18 8.654 18 7C18 5.346 16.654 4 15 4C13.346 4 12 5.346 12 7C12 8.654 13.346 10 15 10ZM20 16C20 16.552 19.553 17 19 17H14C14 17.552 13.553 18 13 18H1C0.447 18 0 17.552 0 17C0 13.14 3.141 10 7 10C8.927 10 10.673 10.783 11.94 12.046C12.809 11.374 13.879 11 15 11C17.757 11 20 13.243 20 16Z" fill="white"/>
</mask>
<g mask="url(#mask0_1_12325)">
<rect x="-2" y="-3" width="24" height="24" fill="#8A47CB"/>
</g>
</svg>
