<svg width="38" height="42" viewBox="0 0 38 42" fill="none" xmlns="http://www.w3.org/2000/svg">
<g clip-path="url(#clip0_1_12740)">
<path d="M19.0031 21.8096C25.0453 21.8096 29.9846 16.9048 29.9846 10.9048C29.9846 4.90474 25.0453 0 19.0031 0C12.9608 0 8.02161 4.90474 8.02161 10.9048C8.02161 16.9048 12.9609 21.8096 19.0031 21.8096ZM37.8491 30.5238C37.5614 29.8095 37.1778 29.1429 36.7462 28.5238C34.5403 25.2857 31.1356 23.1428 27.2993 22.619C26.8198 22.5714 26.2923 22.6666 25.9086 22.9523C23.8945 24.4285 21.4968 25.1904 19.0032 25.1904C16.5095 25.1904 14.1118 24.4285 12.0977 22.9523C11.714 22.6666 11.1865 22.5238 10.707 22.619C6.87069 23.1428 3.41801 25.2857 1.26009 28.5238C0.828502 29.1429 0.444831 29.8572 0.157169 30.5238C0.0133378 30.8096 0.0612507 31.1429 0.205082 31.4286C0.588753 32.0953 1.06825 32.762 1.49984 33.3334C2.17117 34.2382 2.89051 35.0477 3.70576 35.8096C4.3771 36.4762 5.14435 37.0953 5.91169 37.7143C9.70003 40.5239 14.2557 42 18.9552 42C23.6548 42 28.2104 40.5238 31.9988 37.7143C32.766 37.1429 33.5333 36.4762 34.2047 35.8096C34.972 35.0477 35.7392 34.2381 36.4106 33.3334C36.8901 32.7143 37.3218 32.0953 37.7054 31.4286C37.945 31.1429 37.993 30.8095 37.8491 30.5238Z" fill="url(#paint0_linear_1_12740)"/>
</g>
<defs>
<linearGradient id="paint0_linear_1_12740" x1="0.0703126" y1="21" x2="34.6923" y2="26.7836" gradientUnits="userSpaceOnUse">
<stop stop-color="#0063F4"/>
<stop offset="1" stop-color="#00F0AA"/>
</linearGradient>
<clipPath id="clip0_1_12740">
<rect width="38" height="42" fill="white"/>
</clipPath>
</defs>
</svg>
